<svg width="24" height="25" viewBox="0 0 24 25" fill="none" xmlns="http://www.w3.org/2000/svg">
<g id="attachment">
<path id="Vector" d="M19.933 7.67651C20.0202 7.58411 20.1254 7.5105 20.2421 7.46018C20.3587 7.40987 20.4845 7.38392 20.6115 7.38392C20.7386 7.38392 20.8643 7.40987 20.981 7.46018C21.0976 7.5105 21.2028 7.58411 21.29 7.67651C21.665 8.06651 21.665 8.69851 21.29 9.08851L9.76002 21.0975C9.32413 21.5595 8.79847 21.9275 8.21527 22.179C7.63208 22.4306 7.00364 22.5603 6.36852 22.5603C5.73339 22.5603 5.10495 22.4306 4.52176 22.179C3.93856 21.9275 3.4129 21.5595 2.97702 21.0975C1.10402 19.1475 1.10402 15.9845 2.97702 14.0335L13.15 3.43751C13.4116 3.16034 13.727 2.93952 14.0769 2.78859C14.4268 2.63766 14.8039 2.55981 15.185 2.55981C15.5661 2.55981 15.9432 2.63766 16.2931 2.78859C16.6431 2.93952 16.9585 3.16034 17.22 3.43751C18.344 4.60751 18.344 6.50551 17.22 7.67651L8.40202 16.8575C8.31482 16.9497 8.20971 17.0232 8.09313 17.0734C7.97655 17.1237 7.85095 17.1496 7.72402 17.1496C7.59708 17.1496 7.47148 17.1237 7.3549 17.0734C7.23832 17.0232 7.13322 16.9497 7.04602 16.8575C6.8657 16.6667 6.76524 16.4141 6.76524 16.1515C6.76524 15.889 6.8657 15.6364 7.04602 15.4455L15.864 6.26251C16.0446 6.07161 16.1453 5.8188 16.1453 5.55601C16.1453 5.29322 16.0446 5.0404 15.864 4.84951C15.7768 4.75711 15.6716 4.6835 15.555 4.63318C15.4383 4.58287 15.3126 4.55692 15.1855 4.55692C15.0585 4.55692 14.9327 4.58287 14.8161 4.63318C14.6994 4.6835 14.5942 4.75711 14.507 4.84951L4.33202 15.4475C3.20902 16.6175 3.20902 18.5155 4.33202 19.6855C4.59357 19.9627 4.90898 20.1835 5.25891 20.3344C5.60885 20.4853 5.98592 20.5632 6.36702 20.5632C6.74811 20.5632 7.12519 20.4853 7.47512 20.3344C7.82505 20.1835 8.14047 19.9627 8.40202 19.6855L19.933 7.67651Z" fill="#2590F0"/>
</g>
</svg>
