<svg width="24" height="25" viewBox="0 0 24 25" fill="none" xmlns="http://www.w3.org/2000/svg">
<g id="camera">
<g id="Icon">
<path d="M15.0858 3.75928C14.7107 3.38421 14.202 3.17349 13.6716 3.17349H10.3284C9.79799 3.17349 9.28929 3.38421 8.91421 3.75928L8.08579 4.58771C7.71071 4.96278 7.20201 5.17349 6.67157 5.17349H5C3.89543 5.17349 3 6.06892 3 7.17349L3 17.1735C3 18.2781 3.89543 19.1735 5 19.1735H19C20.1046 19.1735 21 18.2781 21 17.1735V7.17349C21 6.06892 20.1046 5.17349 19 5.17349H17.3284C16.798 5.17349 16.2893 4.96278 15.9142 4.58771L15.0858 3.75928Z" stroke="#2590F0" stroke-width="2" stroke-linecap="round" stroke-linejoin="round"/>
<path fill-rule="evenodd" clip-rule="evenodd" d="M12 16.1735C14.2091 16.1735 16 14.3826 16 12.1735C16 9.96435 14.2091 8.17349 12 8.17349C9.79086 8.17349 8 9.96435 8 12.1735C8 14.3826 9.79086 16.1735 12 16.1735Z" stroke="#2590F0" stroke-width="2" stroke-linecap="round" stroke-linejoin="round"/>
</g>
</g>
</svg>
