<svg width="72" height="103" viewBox="0 0 72 103" fill="none" xmlns="http://www.w3.org/2000/svg">
<g id="Group 48095495">
<g id="Group">
<g id="Group_2">
<path id="Vector" d="M48.5768 39.7142H23.8895C22.3644 39.7142 21.1299 40.5017 21.1299 41.4737C21.1299 42.445 22.3644 43.2331 23.8895 43.2331H48.5768C50.1013 43.2331 51.3364 42.445 51.3364 41.4737C51.3364 40.5017 50.1013 39.7142 48.5768 39.7142Z" fill="white"/>
<path id="Vector_2" d="M48.5768 47.2672H23.8895C22.3644 47.2672 21.1299 48.037 21.1299 48.9867C21.1299 49.9352 22.3644 50.7043 23.8895 50.7043H48.5768C50.1013 50.7043 51.3364 49.9352 51.3364 48.9867C51.3364 48.037 50.1013 47.2672 48.5768 47.2672Z" fill="white"/>
</g>
<path id="Vector_3" d="M69.2417 19.1338H54.0952V14.8628C54.0952 14.1356 53.7994 13.4254 53.2869 12.9109C52.773 12.3971 52.0622 12.1025 51.3363 12.1025H46.1201C46.198 11.59 46.2399 11.0657 46.2399 10.5309H46.2419C46.2392 4.87488 41.6567 0.292325 36.0007 0.291016C30.3427 0.292325 25.7601 4.87423 25.7594 10.5309C25.7594 11.0657 25.8007 11.5906 25.8792 12.1032H20.6643C19.9371 12.1032 19.227 12.3971 18.7131 12.9109C18.1993 13.4254 17.9054 14.1356 17.9054 14.8628V19.1338H2.7583C2.0337 19.1338 1.32154 19.4283 0.808369 19.9428C0.294541 20.4566 0 21.1675 0 21.894V100.158C0 100.885 0.294541 101.595 0.808369 102.11C1.32154 102.624 2.0337 102.919 2.7583 102.919H69.2423C69.9682 102.919 70.6784 102.623 71.1923 102.11C71.7074 101.595 72 100.885 72 100.158V21.8934C72 21.1668 71.7074 20.456 71.1923 19.9421C70.6778 19.4277 69.9676 19.1338 69.2417 19.1338ZM50.2 81.8764V80.7571H51.3291L50.2 81.8764ZM60.3567 78.7384H51.998C51.1857 78.7384 50.3918 79.0677 49.8164 79.6424C49.2417 80.2177 48.9131 81.013 48.9131 81.824V90.1847H13.2279V29.8855H16.5675V31.2948C16.5675 31.9925 16.8123 32.6726 17.2423 33.2159C17.315 33.3069 17.3903 33.3946 17.4727 33.4764C17.6043 33.6067 17.7483 33.7238 17.8989 33.8292C18.4101 34.182 19.028 34.3784 19.6537 34.3784H53.9329C54.7439 34.3784 55.5392 34.0498 56.1132 33.4764C56.4019 33.1871 56.629 32.8422 56.7835 32.4658C56.9354 32.096 57.0159 31.698 57.0159 31.2954V29.8855H60.3561L60.3567 78.7384ZM36.1388 4.12476C39.3906 4.13 42.0239 6.76197 42.0298 10.0151C42.0239 13.2676 39.3906 15.8996 36.1388 15.9055C32.8869 15.8996 30.255 13.2676 30.2478 10.0151C30.255 6.76393 32.8869 4.13065 36.1388 4.12476ZM28.0667 15.6188C30.1044 17.7389 32.9655 19.0604 36.1388 19.0611C39.3114 19.0604 42.1718 17.7389 44.2088 15.6188H49.8838V20.2877V30.0806V31.4584H22.3924V30.0806V20.2884V20.2819V15.6194L28.0667 15.6188ZM67.7892 98.707H4.29713V22.9433H17.1952V26.5244H11.2086C10.4506 26.5244 9.711 26.8327 9.17623 27.3668C8.64211 27.9029 8.33382 28.6438 8.33382 29.3998V91.3406C8.33382 92.0966 8.64211 92.8376 9.17623 93.373C9.711 93.9071 10.4506 94.2148 11.2086 94.2148H50.2124C50.2242 94.2148 50.234 94.2135 50.2451 94.2135C50.9821 94.2063 51.7035 93.915 52.2455 93.373L57.5775 88.0403L62.9095 82.709C63.0018 82.618 63.083 82.5198 63.1582 82.4183C63.1792 82.3915 63.1995 82.3653 63.2184 82.3378C63.2833 82.2462 63.3441 82.1493 63.3991 82.0492C63.4142 82.0223 63.4266 81.9942 63.441 81.9673C63.4836 81.8796 63.5215 81.7919 63.5601 81.7003C63.5739 81.6597 63.5889 81.6191 63.602 81.5772C63.6361 81.4758 63.6662 81.3717 63.6878 81.2663C63.6917 81.246 63.6976 81.2251 63.6995 81.2035C63.7211 81.0935 63.7342 80.9835 63.7421 80.8716C63.7441 80.8369 63.746 80.8029 63.748 80.7695C63.748 80.7387 63.7513 80.7067 63.7513 80.6752V29.4005C63.7513 28.6445 63.4456 27.9035 62.9095 27.3674C62.3747 26.8333 61.6331 26.525 60.8778 26.525H54.8899V22.9439H67.7886L67.7892 98.707Z" fill="white"/>
</g>
<path id="Vector_4" d="M27.5947 77.2537H46.931C47.3761 77.2537 47.7361 76.8931 47.7361 76.4486V66.4981L49.0374 67.5722C49.1873 67.6952 49.3693 67.7548 49.5486 67.7548C49.7803 67.7548 50.0114 67.656 50.1698 67.4622C50.4532 67.1212 50.4041 66.612 50.0618 66.3305L37.7744 56.2025C37.4772 55.9571 37.0485 55.9571 36.7513 56.2025L24.4653 66.3305C24.1223 66.612 24.0732 67.1212 24.3553 67.4622C24.6388 67.8059 25.1454 67.855 25.4877 67.5722L26.7896 66.4987V76.4486C26.7909 76.8931 27.1509 77.2537 27.5947 77.2537ZM34.679 68.7609H39.8474V75.6442H34.679V68.7609ZM37.2632 57.8658L46.1279 65.1719V75.6448H41.457V67.9564C41.457 67.512 41.0957 67.152 40.6525 67.152H33.8746C33.4308 67.152 33.0701 67.5126 33.0701 67.9564V75.6448H28.4005V65.1719L37.2632 57.8658Z" fill="white"/>
</g>
</svg>
