<svg width="204" height="34" viewBox="0 0 204 34" fill="none" xmlns="http://www.w3.org/2000/svg">
<g id="Group">
<path id="Vector" d="M16.1407 0.919067C23.7912 0.919067 27.7267 5.20836 27.7267 5.20836L24.9851 9.45342C24.9851 9.45342 21.4033 6.13697 16.4065 6.13697C9.77306 6.13697 5.88175 11.0895 5.88175 16.9265C5.88175 22.8961 9.90629 28.1588 16.4508 28.1588C21.8898 28.1588 25.56 24.1785 25.56 24.1785L28.5669 28.2915C28.5669 28.2915 24.2334 33.3767 16.2291 33.3767C6.63292 33.3767 0 26.2574 0 17.0155C0 7.90631 6.8988 0.919067 16.1407 0.919067Z" fill="white"/>
<path id="Vector_2" d="M43.6445 9.76355C50.5427 9.76355 56.0707 14.6719 56.0707 21.5707C56.0707 28.5132 50.5433 33.3773 43.6887 33.3773C36.7904 33.3773 31.2625 28.5132 31.2625 21.5707C31.2625 14.6719 36.7904 9.76355 43.6445 9.76355ZM43.6887 28.6016C47.3147 28.6016 50.3658 25.7716 50.3658 21.5707C50.3658 17.4141 47.3147 14.5398 43.6887 14.5398C40.0185 14.5398 36.9673 17.4141 36.9673 21.5707C36.9673 25.7716 40.0185 28.6016 43.6887 28.6016Z" fill="white"/>
<path id="Vector_3" d="M60.5806 10.2947H65.9753V12.9037C65.9753 13.7439 65.8869 14.4514 65.8869 14.4514H65.9753C66.9482 12.5499 69.4245 9.76355 73.9796 9.76355C78.9764 9.76355 81.807 12.3731 81.807 18.3427V32.8472H76.2348V19.4924C76.2348 16.7508 75.5273 14.8936 72.653 14.8936C69.6461 14.8936 67.4351 16.795 66.595 19.4924C66.2854 20.421 66.197 21.438 66.197 22.4993V32.8472H60.5811L60.5806 10.2947Z" fill="white"/>
<path id="Vector_4" d="M96.3536 9.76353C101.306 9.76353 102.854 12.6378 102.854 12.6378H102.942C102.942 12.6378 102.898 12.0629 102.898 11.3554V1.44971H108.515V32.8466H103.208V30.9894C103.208 30.1498 103.297 29.5302 103.297 29.5302H103.208C103.208 29.5302 101.307 33.3773 96.1331 33.3773C90.0302 33.3773 86.1389 28.5574 86.1389 21.5707C86.1383 14.4066 90.3834 9.76353 96.3536 9.76353ZM97.4149 28.6464C100.333 28.6464 103.075 26.5238 103.075 21.5265C103.075 18.0331 101.218 14.584 97.4585 14.584C94.3632 14.584 91.7984 17.104 91.7984 21.5707C91.799 25.8605 94.0984 28.6464 97.4149 28.6464Z" fill="white"/>
<path id="Vector_5" d="M114.704 1.45032H120.276V6.44711H114.704V1.45032ZM114.704 10.2948H120.32V32.8473H114.704V10.2948Z" fill="white"/>
<path id="Vector_6" d="M127.483 15.1141H124.565V10.6479H127.616V4.14709H133.099V10.6479H138.229V15.1141H133.099V23.8695C133.099 27.5845 136.018 28.1146 137.565 28.1146C138.185 28.1146 138.583 28.0267 138.583 28.0267V32.9351C138.583 32.9351 137.919 33.0672 136.858 33.0672C133.718 33.0672 127.483 32.1386 127.483 24.5765V15.1141H127.483Z" fill="white"/>
<path id="Vector_7" d="M143.181 1.45032H148.754V6.44711H143.181V1.45032ZM143.181 10.2948H148.798V32.8473H143.181V10.2948Z" fill="white"/>
<path id="Vector_8" d="M165.689 9.76355C172.587 9.76355 178.115 14.6719 178.115 21.5707C178.115 28.5132 172.588 33.3773 165.733 33.3773C158.835 33.3773 153.307 28.5132 153.307 21.5707C153.308 14.6719 158.835 9.76355 165.689 9.76355ZM165.734 28.6016C169.36 28.6016 172.411 25.7716 172.411 21.5707C172.411 17.4141 169.36 14.5398 165.734 14.5398C162.064 14.5398 159.013 17.4141 159.013 21.5707C159.012 25.7716 162.063 28.6016 165.734 28.6016Z" fill="white"/>
<path id="Vector_9" d="M182.625 10.2947H188.02V12.9037C188.02 13.7439 187.931 14.4514 187.931 14.4514H188.02C188.993 12.5499 191.469 9.76355 196.024 9.76355C201.02 9.76355 203.851 12.3731 203.851 18.3427V32.8472H198.279V19.4924C198.279 16.7508 197.572 14.8936 194.698 14.8936C191.691 14.8936 189.48 16.795 188.639 19.4924C188.329 20.421 188.241 21.438 188.241 22.4993V32.8472H182.625V10.2947H182.625Z" fill="white"/>
</g>
</svg>
