<svg width="137" height="41" viewBox="0 0 137 41" fill="none" xmlns="http://www.w3.org/2000/svg">
<g id="Group">
<g id="Group_2">
<path id="Vector" d="M0.36312 0.450317H10.4894C13.8943 0.450317 15.442 0.715633 16.8128 1.3347C19.9523 2.74973 21.9428 5.75721 21.9428 9.91384C21.9428 13.6725 19.9523 17.1664 16.6364 18.493V18.5814C16.6364 18.5814 17.0786 19.023 17.6977 20.1285L24.1543 31.8473H17.7861L11.5506 20.1285H6.06743V31.8473H0.362549V0.450317H0.36312ZM11.1969 15.176C14.2486 15.176 16.1495 13.363 16.1495 10.2234C16.1495 7.21646 14.8671 5.35924 10.4004 5.35924H6.06686V15.176H11.1969Z" fill="white"/>
</g>
<g id="Group_3">
<path id="Vector_2" d="M38.2591 8.76355C44.76 8.76355 48.2533 13.4956 48.2533 19.4652C48.2533 20.1285 48.1212 21.632 48.1212 21.632H32.5554C32.9086 25.5675 35.9603 27.6016 39.321 27.6016C42.947 27.6016 45.8218 25.1253 45.8218 25.1253L47.9885 29.1498C47.9885 29.1498 44.5394 32.3773 38.9236 32.3773C31.4499 32.3773 26.8069 26.9825 26.8069 20.5707C26.8063 13.6283 31.5372 8.76355 38.2591 8.76355ZM42.5927 17.7849C42.5042 14.7332 40.6028 13.0971 38.1265 13.0971C35.2522 13.0971 33.2623 14.8658 32.7311 17.7849H42.5927Z" fill="white"/>
<path id="Vector_3" d="M52.8945 9.29475H58.0245V10.9309C58.0245 11.771 57.9361 12.4785 57.9361 12.4785H58.0245C58.0245 12.4785 59.9702 8.76355 65.2765 8.76355C71.3794 8.76355 75.2707 13.584 75.2707 20.5707C75.2707 27.7348 70.8924 32.3773 64.967 32.3773C60.5008 32.3773 58.5104 29.2819 58.5104 29.2819H58.4225C58.4225 29.2819 58.5104 30.0779 58.5104 31.2282V40.6911H52.8945V9.29475ZM63.9499 27.6464C67.0453 27.6464 69.6101 25.1259 69.6101 20.6597C69.6101 16.3704 67.3101 13.5846 63.9942 13.5846C61.0757 13.5846 58.3341 15.7071 58.3341 20.7045C58.3341 24.1973 60.2349 27.6464 63.9499 27.6464Z" fill="white"/>
<path id="Vector_4" d="M90.6137 8.76355C97.5119 8.76355 103.04 13.6719 103.04 20.5707C103.04 27.5132 97.5119 32.3773 90.6579 32.3773C83.7591 32.3773 78.2317 27.5132 78.2317 20.5707C78.2317 13.6719 83.7591 8.76355 90.6137 8.76355ZM90.6579 27.6016C94.2839 27.6016 97.3351 24.7716 97.3351 20.5707C97.3351 16.4141 94.2839 13.5398 90.6579 13.5398C86.9871 13.5398 83.9366 16.4141 83.9366 20.5707C83.9366 24.7716 86.9877 27.6016 90.6579 27.6016Z" fill="white"/>
<path id="Vector_5" d="M107.549 9.29477H112.945V13.1861C112.945 14.0257 112.856 14.778 112.856 14.778H112.945C113.962 11.55 116.659 8.98523 120.109 8.98523C120.639 8.98523 121.126 9.0731 121.126 9.0731V14.6011C121.126 14.6011 120.551 14.5127 119.799 14.5127C117.411 14.5127 114.713 15.8835 113.652 19.2447C113.298 20.3496 113.166 21.5883 113.166 22.9149V31.8478H107.55L107.549 9.29477Z" fill="white"/>
<path id="Vector_6" d="M125.9 14.1141H122.982V9.64792H126.033V3.14709H131.517V9.64792H136.646V14.1141H131.517V22.8695C131.517 26.5845 134.435 27.1146 135.983 27.1146C136.602 27.1146 137 27.0267 137 27.0267V31.9351C137 31.9351 136.337 32.0672 135.276 32.0672C132.136 32.0672 125.9 31.1386 125.9 23.5765V14.1141H125.9Z" fill="white"/>
</g>
</g>
</svg>
