<svg width="14" height="14" viewBox="0 0 14 14" fill="none" xmlns="http://www.w3.org/2000/svg">
<g id="Icon">
<path id="icon" fill-rule="evenodd" clip-rule="evenodd" d="M11.0833 2.33329H10.5V1.16663H9.33333V2.33329H4.66667V1.16663H3.5V2.33329H2.91667C2.26917 2.33329 1.75 2.85829 1.75 3.49996V11.6666C1.75 12.3083 2.26917 12.8333 2.91667 12.8333H11.0833C11.725 12.8333 12.25 12.3083 12.25 11.6666V3.49996C12.25 2.85829 11.725 2.33329 11.0833 2.33329ZM11.0833 11.6666H2.91667V5.24996H11.0833V11.6666ZM3.79167 7.58329C3.79167 6.77829 4.445 6.12496 5.25 6.12496C6.055 6.12496 6.70833 6.77829 6.70833 7.58329C6.70833 8.38829 6.055 9.04163 5.25 9.04163C4.445 9.04163 3.79167 8.38829 3.79167 7.58329Z" fill="#393738"/>
</g>
</svg>
