<svg width="358" height="222" viewBox="0 0 358 222" fill="none" xmlns="http://www.w3.org/2000/svg">
<g clip-path="url(#clip0_318_492)">
<path d="M191.577 39.7142H166.889C165.364 39.7142 164.13 40.5017 164.13 41.4737C164.13 42.445 165.364 43.2331 166.889 43.2331H191.577C193.101 43.2331 194.336 42.445 194.336 41.4737C194.336 40.5017 193.101 39.7142 191.577 39.7142Z" fill="white"/>
<path d="M191.577 47.2672H166.889C165.364 47.2672 164.13 48.037 164.13 48.9867C164.13 49.9352 165.364 50.7043 166.889 50.7043H191.577C193.101 50.7043 194.336 49.9352 194.336 48.9867C194.336 48.037 193.101 47.2672 191.577 47.2672Z" fill="white"/>
<path d="M212.242 19.1338H197.095V14.8628C197.095 14.1356 196.799 13.4254 196.287 12.9109C195.773 12.3971 195.062 12.1025 194.336 12.1025H189.12C189.198 11.59 189.24 11.0657 189.24 10.5309H189.242C189.239 4.87488 184.657 0.292325 179.001 0.291016C173.343 0.292325 168.76 4.87423 168.759 10.5309C168.759 11.0657 168.801 11.5906 168.879 12.1032H163.664C162.937 12.1032 162.227 12.3971 161.713 12.9109C161.199 13.4254 160.905 14.1356 160.905 14.8628V19.1338H145.758C145.034 19.1338 144.322 19.4283 143.808 19.9428C143.295 20.4566 143 21.1675 143 21.894V100.158C143 100.885 143.295 101.595 143.808 102.11C144.322 102.624 145.034 102.919 145.758 102.919H212.242C212.968 102.919 213.678 102.623 214.192 102.11C214.707 101.595 215 100.885 215 100.158V21.8934C215 21.1668 214.707 20.456 214.192 19.9421C213.678 19.4277 212.968 19.1338 212.242 19.1338ZM193.2 81.8764V80.7571H194.329L193.2 81.8764ZM203.357 78.7384H194.998C194.186 78.7384 193.392 79.0677 192.816 79.6424C192.242 80.2177 191.913 81.013 191.913 81.824V90.1847H156.228V29.8855H159.567V31.2948C159.567 31.9925 159.812 32.6726 160.242 33.2159C160.315 33.3069 160.39 33.3946 160.473 33.4764C160.604 33.6067 160.748 33.7238 160.899 33.8292C161.41 34.182 162.028 34.3784 162.654 34.3784H196.933C197.744 34.3784 198.539 34.0498 199.113 33.4764C199.402 33.1871 199.629 32.8422 199.784 32.4658C199.935 32.096 200.016 31.698 200.016 31.2954V29.8855H203.356L203.357 78.7384ZM179.139 4.12476C182.391 4.13 185.024 6.76197 185.03 10.0151C185.024 13.2676 182.391 15.8996 179.139 15.9055C175.887 15.8996 173.255 13.2676 173.248 10.0151C173.255 6.76393 175.887 4.13065 179.139 4.12476ZM171.067 15.6188C173.104 17.7389 175.965 19.0604 179.139 19.0611C182.311 19.0604 185.172 17.7389 187.209 15.6188H192.884V20.2877V30.0806V31.4584H165.392V30.0806V20.2884V20.2819V15.6194L171.067 15.6188ZM210.789 98.707H147.297V22.9433H160.195V26.5244H154.209C153.451 26.5244 152.711 26.8327 152.176 27.3668C151.642 27.9029 151.334 28.6438 151.334 29.3998V91.3406C151.334 92.0966 151.642 92.8376 152.176 93.373C152.711 93.9071 153.451 94.2148 154.209 94.2148H193.212C193.224 94.2148 193.234 94.2135 193.245 94.2135C193.982 94.2063 194.703 93.915 195.245 93.373L200.577 88.0403L205.91 82.709C206.002 82.618 206.083 82.5198 206.158 82.4183C206.179 82.3915 206.199 82.3653 206.218 82.3378C206.283 82.2462 206.344 82.1493 206.399 82.0492C206.414 82.0223 206.427 81.9942 206.441 81.9673C206.484 81.8796 206.521 81.7919 206.56 81.7003C206.574 81.6597 206.589 81.6191 206.602 81.5772C206.636 81.4758 206.666 81.3717 206.688 81.2663C206.692 81.246 206.698 81.2251 206.7 81.2035C206.721 81.0935 206.734 80.9835 206.742 80.8716C206.744 80.8369 206.746 80.8029 206.748 80.7695C206.748 80.7387 206.751 80.7067 206.751 80.6752V29.4005C206.751 28.6445 206.446 27.9035 205.91 27.3674C205.375 26.8333 204.633 26.525 203.878 26.525H197.89V22.9439H210.789V98.707Z" fill="white"/>
<path d="M170.595 77.2537H189.931C190.376 77.2537 190.736 76.8931 190.736 76.4486V66.4981L192.037 67.5722C192.187 67.6952 192.369 67.7548 192.549 67.7548C192.78 67.7548 193.011 67.656 193.17 67.4622C193.453 67.1212 193.404 66.612 193.062 66.3305L180.774 56.2025C180.477 55.9571 180.049 55.9571 179.751 56.2025L167.465 66.3305C167.122 66.612 167.073 67.1212 167.355 67.4622C167.639 67.8059 168.145 67.855 168.488 67.5722L169.79 66.4987V76.4486C169.791 76.8931 170.151 77.2537 170.595 77.2537ZM177.679 68.7609H182.847V75.6442H177.679V68.7609ZM180.263 57.8658L189.128 65.1719V75.6448H184.457V67.9564C184.457 67.512 184.096 67.152 183.653 67.152H176.875C176.431 67.152 176.07 67.5126 176.07 67.9564V75.6448H171.401V65.1719L180.263 57.8658Z" fill="white"/>
<path d="M16.1407 132.919C23.7912 132.919 27.7267 137.208 27.7267 137.208L24.9851 141.453C24.9851 141.453 21.4033 138.137 16.4065 138.137C9.77306 138.137 5.88175 143.09 5.88175 148.927C5.88175 154.896 9.90629 160.159 16.4508 160.159C21.8898 160.159 25.56 156.178 25.56 156.178L28.5669 160.291C28.5669 160.291 24.2334 165.377 16.2291 165.377C6.63292 165.377 0 158.257 0 149.016C0 139.906 6.8988 132.919 16.1407 132.919Z" fill="white"/>
<path d="M43.6445 141.764C50.5427 141.764 56.0707 146.672 56.0707 153.571C56.0707 160.513 50.5433 165.377 43.6887 165.377C36.7904 165.377 31.2625 160.513 31.2625 153.571C31.2625 146.672 36.7904 141.764 43.6445 141.764ZM43.6887 160.602C47.3147 160.602 50.3657 157.772 50.3657 153.571C50.3657 149.414 47.3147 146.54 43.6887 146.54C40.0185 146.54 36.9673 149.414 36.9673 153.571C36.9673 157.772 40.0185 160.602 43.6887 160.602Z" fill="white"/>
<path d="M60.5806 142.295H65.9753V144.904C65.9753 145.744 65.8869 146.451 65.8869 146.451H65.9753C66.9482 144.55 69.4245 141.764 73.9796 141.764C78.9764 141.764 81.807 144.373 81.807 150.343V164.847H76.2348V151.492C76.2348 148.751 75.5273 146.894 72.653 146.894C69.6461 146.894 67.4351 148.795 66.595 151.492C66.2854 152.421 66.197 153.438 66.197 154.499V164.847H60.5811L60.5806 142.295Z" fill="white"/>
<path d="M96.3536 141.764C101.306 141.764 102.854 144.638 102.854 144.638H102.942C102.942 144.638 102.898 144.063 102.898 143.355V133.45H108.515V164.847H103.208V162.989C103.208 162.15 103.297 161.53 103.297 161.53H103.208C103.208 161.53 101.307 165.377 96.1331 165.377C90.0302 165.377 86.1389 160.557 86.1389 153.571C86.1383 146.407 90.3834 141.764 96.3536 141.764ZM97.4149 160.646C100.333 160.646 103.075 158.524 103.075 153.526C103.075 150.033 101.218 146.584 97.4585 146.584C94.3632 146.584 91.7984 149.104 91.7984 153.571C91.799 157.861 94.0984 160.646 97.4149 160.646Z" fill="white"/>
<path d="M114.704 133.45H120.276V138.447H114.704V133.45ZM114.704 142.295H120.32V164.847H114.704V142.295Z" fill="white"/>
<path d="M127.483 147.114H124.565V142.648H127.616V136.147H133.099V142.648H138.229V147.114H133.099V155.87C133.099 159.585 136.018 160.115 137.565 160.115C138.185 160.115 138.583 160.027 138.583 160.027V164.935C138.583 164.935 137.919 165.067 136.858 165.067C133.718 165.067 127.483 164.139 127.483 156.576V147.114Z" fill="white"/>
<path d="M143.181 133.45H148.754V138.447H143.181V133.45ZM143.181 142.295H148.798V164.847H143.181V142.295Z" fill="white"/>
<path d="M165.689 141.764C172.587 141.764 178.115 146.672 178.115 153.571C178.115 160.513 172.588 165.377 165.733 165.377C158.835 165.377 153.307 160.513 153.307 153.571C153.308 146.672 158.835 141.764 165.689 141.764ZM165.734 160.602C169.36 160.602 172.411 157.772 172.411 153.571C172.411 149.414 169.36 146.54 165.734 146.54C162.064 146.54 159.013 149.414 159.013 153.571C159.012 157.772 162.063 160.602 165.734 160.602Z" fill="white"/>
<path d="M182.625 142.295H188.02V144.904C188.02 145.744 187.931 146.451 187.931 146.451H188.02C188.993 144.55 191.469 141.764 196.024 141.764C201.02 141.764 203.851 144.373 203.851 150.343V164.847H198.279V151.492C198.279 148.751 197.572 146.894 194.698 146.894C191.691 146.894 189.48 148.795 188.639 151.492C188.329 152.421 188.241 153.438 188.241 154.499V164.847H182.625V142.295Z" fill="white"/>
<path d="M221.363 133.45H231.489C234.894 133.45 236.442 133.716 237.813 134.335C240.952 135.75 242.943 138.757 242.943 142.914C242.943 146.672 240.952 150.166 237.636 151.493V151.581C237.636 151.581 238.079 152.023 238.698 153.129L245.154 164.847H238.786L232.551 153.129H227.067V164.847H221.363V133.45ZM232.197 148.176C235.249 148.176 237.149 146.363 237.149 143.223C237.149 140.216 235.867 138.359 231.4 138.359H227.067V148.176H232.197Z" fill="white"/>
<path d="M259.259 141.764C265.76 141.764 269.253 146.496 269.253 152.465C269.253 153.129 269.121 154.632 269.121 154.632H253.555C253.909 158.567 256.96 160.602 260.321 160.602C263.947 160.602 266.822 158.125 266.822 158.125L268.989 162.15C268.989 162.15 265.539 165.377 259.924 165.377C252.45 165.377 247.807 159.983 247.807 153.571C247.806 146.628 252.537 141.764 259.259 141.764ZM263.593 150.785C263.504 147.733 261.603 146.097 259.126 146.097C256.252 146.097 254.262 147.866 253.731 150.785H263.593Z" fill="white"/>
<path d="M273.895 142.295H279.025V143.931C279.025 144.771 278.936 145.479 278.936 145.479H279.025C279.025 145.479 280.97 141.764 286.277 141.764C292.379 141.764 296.271 146.584 296.271 153.571C296.271 160.735 291.892 165.377 285.967 165.377C281.501 165.377 279.51 162.282 279.51 162.282H279.423C279.423 162.282 279.51 163.078 279.51 164.228V173.691H273.895V142.295ZM284.95 160.646C288.045 160.646 290.61 158.126 290.61 153.66C290.61 149.37 288.31 146.585 284.994 146.585C282.076 146.585 279.334 148.707 279.334 153.704C279.334 157.197 281.235 160.646 284.95 160.646Z" fill="white"/>
<path d="M311.614 141.764C318.512 141.764 324.04 146.672 324.04 153.571C324.04 160.513 318.512 165.377 311.658 165.377C304.759 165.377 299.232 160.513 299.232 153.571C299.232 146.672 304.759 141.764 311.614 141.764ZM311.658 160.602C315.284 160.602 318.335 157.772 318.335 153.571C318.335 149.414 315.284 146.54 311.658 146.54C307.987 146.54 304.937 149.414 304.937 153.571C304.937 157.772 307.988 160.602 311.658 160.602Z" fill="white"/>
<path d="M328.549 142.295H333.945V146.186C333.945 147.026 333.856 147.778 333.856 147.778H333.945C334.962 144.55 337.659 141.985 341.109 141.985C341.639 141.985 342.126 142.073 342.126 142.073V147.601C342.126 147.601 341.551 147.513 340.799 147.513C338.411 147.513 335.713 148.883 334.652 152.245C334.298 153.35 334.166 154.588 334.166 155.915V164.848H328.55L328.549 142.295Z" fill="white"/>
<path d="M346.9 147.114H343.982V142.648H347.033V136.147H352.517V142.648H357.646V147.114H352.517V155.87C352.517 159.585 355.435 160.115 356.983 160.115C357.602 160.115 358 160.027 358 160.027V164.935C358 164.935 357.337 165.067 356.276 165.067C353.136 165.067 346.9 164.139 346.9 156.576V147.114Z" fill="white"/>
<path d="M29 202.425C29 208.824 33.6835 213.31 39.8836 213.31C44.5671 213.31 47.6015 210.407 47.6015 210.407L46.3483 208.231C46.3483 208.231 43.8414 210.738 40.0156 210.738C35.7281 210.738 32.0343 207.835 31.9023 202.493H47.9312C47.9312 202.493 47.9974 201.568 47.9974 201.041C47.9974 195.831 45.0289 191.411 39.2899 191.411C33.6172 191.476 29 195.565 29 202.425ZM31.9681 200.249C32.6276 196.027 35.6619 193.85 39.1579 193.85C42.258 193.85 44.8969 195.896 45.0946 200.249H31.9681ZM52.7467 207.9C52.7467 212.452 55.8467 212.98 57.5621 212.98C58.0901 212.98 58.6176 212.914 58.6176 212.914V210.406C58.6176 210.406 58.2878 210.473 57.8919 210.473C56.8364 210.473 55.5832 210.077 55.5832 207.306V183.691H52.7467V207.9ZM62.7731 212.848H65.6092V202.954C65.6092 202.03 65.6754 201.041 65.8732 200.184C66.7309 197.017 69.303 194.049 72.7333 194.049C76.6911 194.049 77.1528 197.15 77.1528 200.25V212.783H79.9894V202.889C79.9894 201.767 80.0551 200.778 80.3849 199.855C81.1763 196.754 83.8152 193.984 86.9815 193.984C90.8073 193.984 91.533 196.82 91.533 200.185V212.718H94.3695V199.459C94.3695 194.315 92.5226 191.346 87.4432 191.346C83.9471 191.346 80.9128 193.72 79.7916 196.556H79.7259C79.1322 193.127 77.087 191.346 73.2612 191.346C70.0292 191.346 66.7309 193.786 65.7417 196.623H65.6759C65.6759 196.623 65.7417 195.897 65.7417 194.974V191.939H62.9713V212.849L62.7731 212.848ZM100.372 212.848H103.209V202.821C103.209 201.833 103.275 200.843 103.538 200.052C104.462 196.555 107.562 194.115 111.124 194.115C115.148 194.115 115.676 197.017 115.676 200.316V212.848H118.512V199.589C118.512 194.444 116.665 191.477 111.52 191.477C106.77 191.477 104 194.643 103.209 196.687H103.142C103.142 196.687 103.208 195.961 103.208 194.973V183.692H100.371L100.372 212.848ZM124.251 205.262C124.251 210.672 126.296 213.375 131.243 213.375C135.86 213.375 138.565 210.143 139.422 208.098H139.488C139.488 208.098 139.422 208.824 139.422 209.748V212.848H142.127V191.938H139.29V201.965C139.29 206.516 136.322 210.673 131.572 210.673C127.548 210.673 127.021 207.77 127.021 204.472V191.939H124.251V205.262ZM148.524 212.848H151.361V204.076C151.361 202.756 151.559 201.37 151.955 199.986C152.878 196.886 155.055 194.577 158.023 194.577C158.551 194.577 159.079 194.643 159.079 194.643V191.873C159.079 191.873 158.551 191.741 157.957 191.741C154.659 191.741 152.351 194.116 151.361 197.282H151.295C151.295 197.282 151.361 196.556 151.361 195.633V191.939H148.59V212.849L148.524 212.848ZM161.123 210.276C161.123 210.276 163.762 213.309 168.841 213.309C173.062 213.309 175.965 210.868 175.965 207.439C175.965 200.579 164.751 201.766 164.751 197.215C164.751 194.905 166.796 193.983 168.907 193.983C172.337 193.983 174.118 195.896 174.118 195.896L175.371 193.719C175.371 193.719 173.326 191.409 168.973 191.409C165.214 191.409 161.849 193.455 161.849 197.148C161.849 203.942 173.062 202.821 173.062 207.373C173.062 209.549 171.083 210.671 168.841 210.671C164.95 210.671 162.64 208.164 162.64 208.164L161.123 210.276ZM181.572 205.262C181.572 212.254 186.453 213.046 188.828 213.046C189.553 213.046 190.016 212.98 190.016 212.98V210.407C190.016 210.407 189.62 210.474 189.092 210.474C187.509 210.474 184.409 209.88 184.409 204.933V194.576H189.619V192.202H184.409V186.199H181.638V192.202H178.868V194.576H181.638V205.263L181.572 205.262ZM203.537 202.425C203.537 208.824 208.222 213.31 214.423 213.31C219.106 213.31 222.14 210.407 222.14 210.407L220.886 208.231C220.886 208.231 218.38 210.738 214.554 210.738C210.266 210.738 206.573 207.835 206.441 202.493H222.47C222.47 202.493 222.536 201.568 222.536 201.041C222.536 195.831 219.568 191.411 213.829 191.411C208.222 191.476 203.537 195.565 203.537 202.425ZM206.572 200.249C207.232 196.027 210.265 193.85 213.762 193.85C216.862 193.85 219.501 195.896 219.698 200.249H206.572ZM227.548 212.848H230.385V202.821C230.385 201.833 230.451 200.843 230.715 199.985C231.639 196.555 234.739 194.115 238.301 194.115C242.325 194.115 242.852 197.017 242.852 200.316V212.848H245.688V199.589C245.688 194.444 243.842 191.477 238.696 191.477C233.749 191.477 231.111 194.841 230.386 196.754H230.32C230.32 196.754 230.386 196.027 230.386 195.104V191.937H227.616V212.847L227.548 212.848ZM250.24 202.425C250.24 208.824 254.923 213.31 261.125 213.31C265.808 213.31 268.842 210.407 268.842 210.407L267.589 208.231C267.589 208.231 265.082 210.738 261.257 210.738C256.969 210.738 253.275 207.835 253.143 202.493H269.172C269.172 202.493 269.239 201.568 269.239 201.041C269.239 195.831 266.27 191.411 260.531 191.411C254.923 191.476 250.24 195.565 250.24 202.425ZM253.273 200.249C253.933 196.027 256.968 193.85 260.464 193.85C263.564 193.85 266.203 195.896 266.4 200.249H253.273ZM274.251 212.848H277.086V204.076C277.086 202.756 277.284 201.37 277.68 199.986C278.604 196.886 280.781 194.577 283.749 194.577C284.277 194.577 284.804 194.643 284.804 194.643V191.873C284.804 191.873 284.276 191.741 283.683 191.741C280.385 191.741 278.076 194.116 277.086 197.282H277.02C277.02 197.282 277.086 196.556 277.086 195.633V191.939H274.316V212.849L274.251 212.848ZM290.016 217.532L288.961 219.841C291.006 220.896 293.38 221.49 295.821 221.49C300.9 221.49 305.848 218.918 305.848 212.256V191.939H303.143V194.248C303.143 194.71 303.209 194.975 303.209 194.975H303.011C303.011 194.975 301.625 191.478 296.15 191.478C290.544 191.478 287.115 195.766 287.115 202.032C287.115 208.299 290.807 212.719 296.416 212.719C299.646 212.719 301.758 211.399 303.011 209.09H303.078C303.078 209.09 303.011 209.816 303.011 210.607V212.52C303.011 217.137 299.779 219.05 295.69 219.05C292.588 218.982 290.016 217.532 290.016 217.532ZM296.81 210.143C292.655 210.143 289.95 206.912 289.95 201.964C289.95 197.016 292.324 194.048 296.348 194.048C300.042 194.048 302.944 195.896 302.944 202.03C303.01 208.164 300.108 210.143 296.81 210.143ZM309.08 220.302C309.08 220.302 310.596 221.555 312.708 221.555C315.478 221.555 317.655 219.84 318.71 217.201L329 192.004H325.9L319.898 207.241C319.502 208.296 319.172 209.418 319.172 209.418H319.105C319.105 209.418 318.775 208.23 318.379 207.241L312.245 191.937H309.144L317.853 212.649L316.6 215.618C315.742 217.532 314.489 219.048 312.642 219.048C311.322 219.048 310.135 218.125 310.135 218.125L309.08 220.302Z" fill="white"/>
</g>
<defs>
<clipPath id="clip0_318_492">
<rect width="358" height="222" fill="white"/>
</clipPath>
</defs>
</svg>
