<svg width="24" height="24" viewBox="0 0 24 24" fill="none" xmlns="http://www.w3.org/2000/svg">
<g id="search" clip-path="url(#clip0_1_545)">
<g id="Layer 2">
<g id="search_2">
<path id="Vector" d="M17.8058 16.8594L15.5399 14.6002C16.2709 13.6688 16.6676 12.5186 16.6662 11.3345C16.6662 10.2801 16.3535 9.24924 15.7676 8.37246C15.1818 7.49568 14.3491 6.81231 13.3749 6.40878C12.4006 6.00524 11.3286 5.89966 10.2944 6.10538C9.26017 6.3111 8.31017 6.81889 7.56453 7.56453C6.81889 8.31017 6.3111 9.26017 6.10538 10.2944C5.89966 11.3286 6.00524 12.4006 6.40878 13.3749C6.81231 14.3491 7.49568 15.1818 8.37246 15.7676C9.24924 16.3535 10.2801 16.6662 11.3345 16.6662C12.5186 16.6676 13.6688 16.2709 14.6002 15.5399L16.8594 17.8058C16.9214 17.8683 16.9951 17.9178 17.0763 17.9517C17.1575 17.9855 17.2446 18.0029 17.3326 18.0029C17.4206 18.0029 17.5077 17.9855 17.5889 17.9517C17.6701 17.9178 17.7438 17.8683 17.8058 17.8058C17.8683 17.7438 17.9178 17.6701 17.9517 17.5889C17.9855 17.5077 18.0029 17.4206 18.0029 17.3326C18.0029 17.2446 17.9855 17.1575 17.9517 17.0763C17.9178 16.9951 17.8683 16.9214 17.8058 16.8594ZM7.33584 11.3345C7.33584 10.5437 7.57036 9.77057 8.00974 9.11298C8.44912 8.4554 9.07364 7.94287 9.80431 7.64022C10.535 7.33757 11.339 7.25838 12.1147 7.41267C12.8903 7.56696 13.6028 7.9478 14.1621 8.50703C14.7213 9.06626 15.1021 9.77876 15.2564 10.5544C15.4107 11.3301 15.3315 12.1341 15.0289 12.8648C14.7262 13.5955 14.2137 14.22 13.5561 14.6594C12.8985 15.0987 12.1254 15.3333 11.3345 15.3333C10.274 15.3333 9.25693 14.912 8.50703 14.1621C7.75713 13.4122 7.33584 12.3951 7.33584 11.3345Z" fill="#34C759"/>
</g>
</g>
</g>
<defs>
<clipPath id="clip0_1_545">
<rect width="24" height="24" fill="white"/>
</clipPath>
</defs>
</svg>
