<svg width="300" height="39" viewBox="0 0 300 39" fill="none" xmlns="http://www.w3.org/2000/svg">
<path d="M0 19.4255C0 25.8238 4.68348 30.3096 10.8836 30.3096C15.5671 30.3096 18.6015 27.4072 18.6015 27.4072L17.3483 25.2311C17.3483 25.2311 14.8414 27.7379 11.0156 27.7379C6.72812 27.7379 3.03433 24.8351 2.90234 19.4931H18.9312C18.9312 19.4931 18.9974 18.5682 18.9974 18.0412C18.9974 12.8308 16.0289 8.41078 10.2899 8.41078C4.61725 8.47605 0 12.5653 0 19.4255ZM2.96809 17.2488C3.62756 13.0271 6.66189 10.8504 10.1579 10.8504C13.258 10.8504 15.8969 12.896 16.0946 17.2488H2.96809ZM23.7467 24.9004C23.7467 29.4524 26.8467 29.9798 28.5621 29.9798C29.0901 29.9798 29.6176 29.9136 29.6176 29.9136V27.4063C29.6176 27.4063 29.2878 27.473 28.8919 27.473C27.8364 27.473 26.5832 27.077 26.5832 24.3062V0.69104H23.7467V24.9004ZM33.7731 29.8479H36.6092V19.9539C36.6092 19.0304 36.6754 18.0412 36.8732 17.184C37.7309 14.0172 40.303 11.0491 43.7333 11.0491C47.6911 11.0491 48.1528 14.1497 48.1528 17.2498V29.7826H50.9894V19.8886C50.9894 18.7669 51.0551 17.7782 51.3849 16.8548C52.1763 13.7542 54.8152 10.9843 57.9815 10.9843C61.8073 10.9843 62.533 13.8204 62.533 17.185V29.7178H65.3695V16.4588C65.3695 11.3146 63.5226 8.34551 58.4432 8.34551C54.9471 8.34551 51.9128 10.7204 50.7916 13.5565H50.7259C50.1322 10.1266 48.087 8.34551 44.2612 8.34551C41.0292 8.34551 37.7309 10.7861 36.7417 13.6227H36.6759C36.6759 13.6227 36.7417 12.897 36.7417 11.9745V8.93922H33.9713V29.8488L33.7731 29.8479ZM71.372 29.8479H74.2085V19.8214C74.2085 18.8327 74.2748 17.8425 74.5383 17.0515C75.4617 13.5555 78.5623 11.1149 82.1241 11.1149C86.1476 11.1149 86.6756 14.0172 86.6756 17.3155V29.8479H89.5122V16.5894C89.5122 11.4441 87.6653 8.47653 82.5201 8.47653C77.7704 8.47653 75.0005 11.6429 74.2085 13.687H74.1423C74.1423 13.687 74.2081 12.9613 74.2081 11.9726V0.69249H71.3715L71.372 29.8479ZM95.2506 22.262C95.2506 27.6717 97.2957 30.3753 102.243 30.3753C106.86 30.3753 109.565 27.1433 110.422 25.0981H110.488C110.488 25.0981 110.422 25.8238 110.422 26.7478V29.8479H113.127V8.93825H110.29V18.9647C110.29 23.5162 107.322 27.6731 102.572 27.6731C98.5484 27.6731 98.021 24.7703 98.021 21.472V8.93922H95.2506V22.262ZM119.524 29.8479H122.361V21.0756C122.361 19.7561 122.559 18.3705 122.955 16.9858C123.878 13.8857 126.055 11.5766 129.023 11.5766C129.551 11.5766 130.079 11.6429 130.079 11.6429V8.87299C130.079 8.87299 129.551 8.74147 128.957 8.74147C125.659 8.74147 123.351 11.1158 122.361 14.2822H122.295C122.295 14.2822 122.361 13.5565 122.361 12.633V8.93922H119.59V29.8488L119.524 29.8479ZM132.123 27.2757C132.123 27.2757 134.762 30.3091 139.841 30.3091C144.062 30.3091 146.965 27.8685 146.965 24.4391C146.965 17.579 135.751 18.7665 135.751 14.215C135.751 11.9054 137.796 10.9829 139.907 10.9829C143.337 10.9829 145.118 12.8955 145.118 12.8955L146.371 10.7189C146.371 10.7189 144.326 8.40934 139.973 8.40934C136.214 8.40934 132.849 10.4549 132.849 14.1483C132.849 20.9421 144.062 19.8209 144.062 24.3729C144.062 26.5491 142.083 27.6712 139.841 27.6712C135.95 27.6712 133.64 25.1639 133.64 25.1639L132.123 27.2757ZM152.572 22.262C152.572 29.2537 157.453 30.0456 159.828 30.0456C160.553 30.0456 161.016 29.9798 161.016 29.9798V27.4072C161.016 27.4072 160.62 27.4739 160.092 27.4739C158.509 27.4739 155.409 26.8802 155.409 21.9333V11.5761H160.619V9.20176H155.409V3.19885H152.638V9.20176H149.868V11.5761H152.638V22.2625L152.572 22.262ZM174.537 19.4255C174.537 25.8238 179.222 30.3096 185.423 30.3096C190.106 30.3096 193.14 27.4072 193.14 27.4072L191.886 25.2311C191.886 25.2311 189.38 27.7379 185.554 27.7379C181.266 27.7379 177.573 24.8351 177.441 19.4931H193.47C193.47 19.4931 193.536 18.5682 193.536 18.0412C193.536 12.8308 190.568 8.41078 184.829 8.41078C179.222 8.47605 174.537 12.5653 174.537 19.4255ZM177.572 17.2488C178.232 13.0271 181.265 10.8504 184.762 10.8504C187.862 10.8504 190.501 12.896 190.698 17.2488H177.572ZM198.548 29.8479H201.385V19.8214C201.385 18.8327 201.451 17.8425 201.715 16.9848C202.639 13.555 205.739 11.1149 209.301 11.1149C213.325 11.1149 213.852 14.0172 213.852 17.3155V29.8479H216.688V16.5894C216.688 11.4441 214.842 8.47653 209.696 8.47653C204.749 8.47653 202.111 11.8406 201.386 13.7537H201.32C201.32 13.7537 201.386 13.0271 201.386 12.1036V8.93729H198.616V29.8469L198.548 29.8479ZM221.24 19.4255C221.24 25.8238 225.923 30.3096 232.125 30.3096C236.808 30.3096 239.842 27.4072 239.842 27.4072L238.589 25.2311C238.589 25.2311 236.082 27.7379 232.257 27.7379C227.969 27.7379 224.275 24.8351 224.143 19.4931H240.172C240.172 19.4931 240.239 18.5682 240.239 18.0412C240.239 12.8308 237.27 8.41078 231.531 8.41078C225.923 8.47605 221.24 12.5653 221.24 19.4255ZM224.273 17.2488C224.933 13.0271 227.968 10.8504 231.464 10.8504C234.564 10.8504 237.203 12.896 237.4 17.2488H224.273ZM245.251 29.8479H248.086V21.0756C248.086 19.7561 248.284 18.3705 248.68 16.9858C249.604 13.8857 251.781 11.5766 254.749 11.5766C255.277 11.5766 255.804 11.6429 255.804 11.6429V8.87299C255.804 8.87299 255.276 8.74147 254.683 8.74147C251.385 8.74147 249.076 11.1158 248.086 14.2822H248.02C248.02 14.2822 248.086 13.5565 248.086 12.633V8.93922H245.316V29.8488L245.251 29.8479ZM261.016 34.5323L259.961 36.8409C262.006 37.8959 264.38 38.4901 266.821 38.4901C271.9 38.4901 276.848 35.9179 276.848 29.2556V8.93922H274.143V11.2483C274.143 11.71 274.209 11.975 274.209 11.975H274.011C274.011 11.975 272.625 8.47845 267.15 8.47845C261.544 8.47845 258.115 12.766 258.115 19.0324C258.115 25.2988 261.807 29.7187 267.416 29.7187C270.646 29.7187 272.758 28.3993 274.011 26.0897H274.078C274.078 26.0897 274.011 26.8159 274.011 27.6069V29.5196C274.011 34.1373 270.779 36.0499 266.69 36.0499C263.588 35.9823 261.016 34.5323 261.016 34.5323ZM267.81 27.1433C263.655 27.1433 260.95 23.9117 260.95 18.9637C260.95 14.0163 263.324 11.0482 267.348 11.0482C271.042 11.0482 273.944 12.896 273.944 19.0304C274.01 25.1644 271.108 27.1433 267.81 27.1433ZM280.08 37.3017C280.08 37.3017 281.596 38.5549 283.708 38.5549C286.478 38.5549 288.655 36.84 289.71 34.2011L300 9.00352H296.9L290.898 24.2409C290.502 25.2964 290.172 26.4176 290.172 26.4176H290.105C290.105 26.4176 289.775 25.2301 289.379 24.2409L283.245 8.93729H280.144L288.853 29.6491L287.6 32.6182C286.742 34.5318 285.489 36.048 283.642 36.048C282.322 36.048 281.135 35.1246 281.135 35.1246L280.08 37.3017Z" fill="white"/>
</svg>
