<svg width="20" height="22" viewBox="0 0 20 22" fill="none" xmlns="http://www.w3.org/2000/svg">
<path id="Vector (Stroke)" fill-rule="evenodd" clip-rule="evenodd" d="M6.55084 2.35565C6.55084 1.05523 7.60602 0 8.90647 0H11.0934C12.3939 0 13.4491 1.05521 13.4491 2.35565V2.98201C13.4491 3.69129 14.2092 4.1305 14.8225 3.7792L14.8245 3.77807L15.3632 3.47172C16.4932 2.8174 17.9299 3.20109 18.5854 4.32913L18.586 4.33026L19.6782 6.21771C20.3374 7.33996 19.9504 8.7892 18.8233 9.44416L18.8174 9.44752L18.278 9.75427C18.2777 9.75442 18.2775 9.75457 18.2772 9.75471C17.6681 10.1044 17.6681 10.9879 18.2772 11.3376C18.2775 11.3377 18.2777 11.3379 18.278 11.338L18.8174 11.6448L18.827 11.6503C19.9356 12.3033 20.3388 13.737 19.6792 14.8729C19.6791 14.8731 19.679 14.8733 19.6788 14.8735L18.586 16.762L18.5832 16.7669C17.9307 17.8746 16.4988 18.2781 15.3633 17.6206L14.8245 17.3142L14.8225 17.3131C14.2092 16.9618 13.4491 17.401 13.4491 18.1103V18.7366C13.4491 20.0371 12.3939 21.0923 11.0934 21.0923H8.90647C7.60602 21.0923 6.55084 20.0371 6.55084 18.7366V18.1103C6.55084 17.401 5.79072 16.9618 5.17742 17.3131L5.17545 17.3142L4.6367 17.6206C3.50673 18.2749 2.07002 17.8912 1.41454 16.7632L0.321057 14.8735C0.320951 14.8733 0.320844 14.8731 0.320738 14.8729C-0.335702 13.7425 0.0477084 12.3041 1.17663 11.6481L1.18248 11.6448L1.72194 11.338C1.72225 11.3378 1.72257 11.3377 1.72288 11.3375C2.33181 10.9878 2.33178 10.1044 1.72277 9.75475C1.72249 9.75459 1.72222 9.75443 1.72194 9.75427L1.18248 9.44753L1.17294 9.442C0.0643166 8.78898 -0.338944 7.35534 0.320738 6.21938C0.320844 6.2192 0.32095 6.21902 0.321057 6.21884L1.41388 4.33026L1.4167 4.32544C2.06922 3.21767 3.50117 2.81419 4.6367 3.47172L5.17545 3.77808L5.17742 3.7792C5.79072 4.13051 6.55084 3.69127 6.55084 2.98201V2.35565ZM8.90647 1.44147C8.40215 1.44147 7.99232 1.8513 7.99232 2.35565V2.98201C7.99232 4.79902 6.03551 5.9309 4.46203 5.03063C4.46167 5.03042 4.4613 5.03021 4.46094 5.03001L3.92149 4.72325L3.91566 4.7199C3.48116 4.46742 2.92035 4.61539 2.65994 5.05497L1.56805 6.94192L1.56739 6.94306C1.3153 7.37689 1.46244 7.93664 1.90046 8.19757L2.43842 8.50346C4.01523 9.40669 4.01523 11.6856 2.43842 12.5888L2.43644 12.59L1.89837 12.8959C1.45818 13.1535 1.31175 13.7093 1.56739 14.1492L1.56805 14.1504L2.66087 16.0389C2.66096 16.0391 2.66104 16.0392 2.66113 16.0394C2.91815 16.4812 3.47504 16.6284 3.91566 16.3724L3.92149 16.369L4.46094 16.0623C4.46127 16.0621 4.46161 16.0619 4.46195 16.0617C6.03543 15.1614 7.99232 16.2932 7.99232 18.1103V18.7366C7.99232 19.241 8.40215 19.6508 8.90647 19.6508H11.0934C11.5978 19.6508 12.0076 19.241 12.0076 18.7366V18.1103C12.0076 16.2932 13.9646 15.1613 15.5381 16.0618C15.5384 16.062 15.5387 16.0621 15.539 16.0623L16.0784 16.369L16.0843 16.3724C16.5188 16.6249 17.0796 16.4769 17.34 16.0373L18.4325 14.1492C18.6846 13.7154 18.5375 13.1557 18.0995 12.8947L17.5635 12.5899L17.5615 12.5888C15.9847 11.6856 15.9847 9.40669 17.5615 8.50347L17.5635 8.50234L18.1016 8.19635C18.5428 7.93812 18.6859 7.37331 18.4347 6.94675L18.4319 6.94192L17.339 5.05335C17.3389 5.05319 17.3388 5.05302 17.3387 5.05285C17.0817 4.61112 16.5249 4.46387 16.0843 4.7199L16.0784 4.72326L15.539 5.03001C15.5386 5.03021 15.5382 5.03042 15.5379 5.03063C13.9644 5.93091 12.0076 4.799 12.0076 2.98201V2.35565C12.0076 1.85132 11.5978 1.44147 11.0934 1.44147H8.90647Z" fill="#2590F0"/>
</svg>
